<svg xmlns="http://www.w3.org/2000/svg" width="1200" height="675" viewBox="0 0 1200 675" role="img" aria-label="امنیت داده در نرم‌افزارهای سازمانی؛ چه باید بدانیم">
  <defs>
    <linearGradient id="bgf42a8f" x1="0" y1="0" x2="1" y2="1"><stop offset="0" stop-color="#f2f3ff"/><stop offset="1" stop-color="#faf4ff"/></linearGradient>
    <linearGradient id="acf42a8f" x1="0" y1="0" x2="1" y2="0"><stop offset="0" stop-color="#6366f1"/><stop offset="1" stop-color="#a855f7"/></linearGradient>
  </defs>
  <rect width="1200" height="675" fill="url(#bgf42a8f)"/>
  <g transform="translate(96 108)">
    <rect width="1008" height="337" rx="18" fill="#ffffff" stroke="#e8e6f1"/>
    <circle cx="26" cy="26" r="5" fill="#dcd9e8"/><circle cx="44" cy="26" r="5" fill="#dcd9e8"/><circle cx="62" cy="26" r="5" fill="#dcd9e8"/>
    <rect x="20" y="52" width="150" height="261" rx="12" fill="#f4f3f9"/>
    <rect x="190" y="60" width="220" height="14" rx="7" fill="url(#acf42a8f)"/>
    <rect x="190" y="86" width="140" height="10" rx="5" fill="#e8e6f1"/>
    <rect x="190" y="217" width="90" height="90" rx="10" fill="#eef1ff"/>
    <rect x="292" y="217" width="90" height="90" rx="10" fill="#f5e8ff"/>
    <rect x="394" y="217" width="90" height="90" rx="10" fill="#eef1ff"/>
    <rect x="788" y="60" width="200" height="247" rx="12" fill="#faf9fd"/>
    <rect x="808" y="267" width="40" height="40" rx="8" fill="url(#acf42a8f)"/>
  </g>
  <text x="8%" y="621" fill="#14161d" font-family="Vazirmatn, Tahoma, sans-serif" font-size="26" font-weight="700">امنیت داده در نرم‌افزارهای سازمانی؛ چه باید بدانیم</text>
</svg>