<svg xmlns="http://www.w3.org/2000/svg" width="1200" height="750" viewBox="0 0 1200 750" role="img" aria-label="راهکارهای سفارشی">
  <defs>
    <linearGradient id="bg205c07" x1="0" y1="0" x2="1" y2="1"><stop offset="0" stop-color="#eafbf8"/><stop offset="1" stop-color="#ecfeff"/></linearGradient>
    <linearGradient id="ac205c07" x1="0" y1="0" x2="1" y2="0"><stop offset="0" stop-color="#14b8a6"/><stop offset="1" stop-color="#06b6d4"/></linearGradient>
  </defs>
  <rect width="1200" height="750" fill="url(#bg205c07)"/>
  <g transform="translate(96 120)">
    <rect width="1008" height="465" rx="18" fill="#ffffff" stroke="#dde8e6"/>
    <circle cx="26" cy="26" r="5" fill="#c8d8d5"/><circle cx="44" cy="26" r="5" fill="#c8d8d5"/><circle cx="62" cy="26" r="5" fill="#c8d8d5"/>
    <rect x="20" y="52" width="150" height="389" rx="12" fill="#eef4f3"/>
    <rect x="190" y="60" width="220" height="14" rx="7" fill="url(#ac205c07)"/>
    <rect x="190" y="86" width="140" height="10" rx="5" fill="#dde8e6"/>
    <rect x="190" y="345" width="90" height="90" rx="10" fill="#eefcfa"/>
    <rect x="292" y="345" width="90" height="90" rx="10" fill="#cffafe"/>
    <rect x="394" y="345" width="90" height="90" rx="10" fill="#eefcfa"/>
    <rect x="788" y="60" width="200" height="375" rx="12" fill="#f7fafa"/>
    <rect x="808" y="395" width="40" height="40" rx="8" fill="url(#ac205c07)"/>
  </g>
  <text x="8%" y="690" fill="#14161d" font-family="Vazirmatn, Tahoma, sans-serif" font-size="26" font-weight="700">راهکارهای سفارشی</text>
</svg>